<svg width="100" height="100" viewBox="0 0 100 100" fill="none" xmlns="http://www.w3.org/2000/svg">
    <rect width="100" height="100" rx="10" fill="white" />
    <path fill-rule="evenodd" clip-rule="evenodd"
        d="M49.6885 11.5312H49.3115C46.0544 11.5311 43.3386 11.5311 41.1825 11.8209C38.9068 12.1269 36.8521 12.8 35.201 14.451C33.55 16.1021 32.8769 18.1568 32.5709 20.4325C32.3631 21.9781 32.3043 25.6741 32.2877 28.843C24.9571 29.0824 20.5557 29.9382 17.4969 32.9969C13.25 37.2439 13.25 44.0794 13.25 57.75C13.25 71.4206 13.25 78.2563 17.4969 82.5029C21.7439 86.75 28.5793 86.75 42.2499 86.75H56.75C70.4206 86.75 77.2563 86.75 81.5029 82.5029C85.75 78.2563 85.75 71.4206 85.75 57.75C85.75 44.0794 85.75 37.2439 81.5029 32.9969C78.4442 29.9382 74.0431 29.0824 66.7122 28.843C66.6955 25.6741 66.6368 21.9781 66.4291 20.4325C66.1232 18.1568 65.45 16.1021 63.7988 14.451C62.148 12.8 60.0933 12.1269 57.8176 11.8209C55.6614 11.5311 52.9456 11.5311 49.6885 11.5312ZM61.2736 28.7568C61.2573 25.6877 61.2051 22.3848 61.0402 21.1571C60.8151 19.4842 60.4265 18.7683 59.9541 18.2959C59.4818 17.8235 58.7659 17.4348 57.0929 17.21C55.342 16.9745 52.9945 16.9687 49.5 16.9687C46.0055 16.9687 43.6579 16.9745 41.907 17.21C40.2342 17.4348 39.5183 17.8235 39.0459 18.2959C38.5735 18.7683 38.1849 19.4842 37.96 21.1571C37.7949 22.3848 37.7427 25.6877 37.7263 28.7568C39.1452 28.75 40.6508 28.75 42.25 28.75H56.75C58.3493 28.75 59.8548 28.75 61.2736 28.7568ZM49.5 40.5312C51.0015 40.5312 52.2188 41.7485 52.2188 43.25V43.287C56.1656 44.2813 59.4688 47.3934 59.4688 51.7082C59.4688 53.2097 58.2515 54.427 56.75 54.427C55.2485 54.427 54.0312 53.2097 54.0312 51.7082C54.0312 50.3162 52.4877 48.3855 49.5 48.3855C46.5123 48.3855 44.9688 50.3162 44.9688 51.7082C44.9688 53.1006 46.5123 55.0312 49.5 55.0312C54.5203 55.0312 59.4688 58.5105 59.4688 63.7918C59.4688 68.1066 56.1656 71.2187 52.2188 72.213V72.25C52.2188 73.7515 51.0015 74.9687 49.5 74.9687C47.9985 74.9687 46.7812 73.7515 46.7812 72.25V72.213C42.8344 71.2187 39.5312 68.1066 39.5312 63.7918C39.5312 62.2903 40.7485 61.073 42.25 61.073C43.7515 61.073 44.9688 62.2903 44.9688 63.7918C44.9688 65.1838 46.5123 67.1145 49.5 67.1145C52.4877 67.1145 54.0312 65.1838 54.0312 63.7918C54.0312 62.3994 52.4877 60.4687 49.5 60.4687C44.4797 60.4687 39.5312 56.9898 39.5312 51.7082C39.5312 47.3934 42.8344 44.2813 46.7812 43.287V43.25C46.7812 41.7485 47.9985 40.5312 49.5 40.5312Z"
        fill="#113955" />
</svg>
    