<svg width="90" height="90" viewBox="0 0 90 90" fill="none" xmlns="http://www.w3.org/2000/svg">
<g filter="url(#filter0_dd_10_688)">
<path d="M22.24 28.53H27.1L30.88 42.75L34.66 28.53H39.01L43.09 42.75L46.57 28.53H51.31L45.07 48H40.45L36.73 33.87L32.89 48H28.27L22.24 28.53ZM58.9105 48.3C57.3505 48.3 55.4405 48.15 53.1805 47.85V44.94C55.9605 45.36 57.8905 45.57 58.9705 45.57C59.8905 45.57 60.5705 45.48 61.0105 45.3C61.4505 45.12 61.6705 44.79 61.6705 44.31V43.41C61.6705 42.91 61.5305 42.56 61.2505 42.36C60.9705 42.14 60.4205 42.03 59.6005 42.03H57.7105C56.1705 42.03 54.9805 41.73 54.1405 41.13C53.3005 40.51 52.8805 39.61 52.8805 38.43V36.66C52.8805 35.4 53.4805 34.51 54.6805 33.99C55.8805 33.45 57.6905 33.18 60.1105 33.18C61.0705 33.18 62.7905 33.27 65.2705 33.45V36.24C62.1505 36 60.3905 35.88 59.9905 35.88C58.8105 35.88 58.0405 35.96 57.6805 36.12C57.3605 36.3 57.2005 36.63 57.2005 37.11V37.89C57.2005 38.15 57.3305 38.38 57.5905 38.58C57.8505 38.76 58.2305 38.85 58.7305 38.85H60.6505C64.2105 38.85 65.9905 40.01 65.9905 42.33V44.16C65.9905 44.86 65.8605 45.47 65.6005 45.99C65.3405 46.51 65.0005 46.92 64.5805 47.22C64.1805 47.5 63.6605 47.72 63.0205 47.88C62.4005 48.04 61.7505 48.15 61.0705 48.21C60.4505 48.27 59.7305 48.3 58.9105 48.3Z" fill="#0D6EFD"/>
<path d="M22.24 28.53H27.1L30.88 42.75L34.66 28.53H39.01L43.09 42.75L46.57 28.53H51.31L45.07 48H40.45L36.73 33.87L32.89 48H28.27L22.24 28.53ZM58.9105 48.3C57.3505 48.3 55.4405 48.15 53.1805 47.85V44.94C55.9605 45.36 57.8905 45.57 58.9705 45.57C59.8905 45.57 60.5705 45.48 61.0105 45.3C61.4505 45.12 61.6705 44.79 61.6705 44.31V43.41C61.6705 42.91 61.5305 42.56 61.2505 42.36C60.9705 42.14 60.4205 42.03 59.6005 42.03H57.7105C56.1705 42.03 54.9805 41.73 54.1405 41.13C53.3005 40.51 52.8805 39.61 52.8805 38.43V36.66C52.8805 35.4 53.4805 34.51 54.6805 33.99C55.8805 33.45 57.6905 33.18 60.1105 33.18C61.0705 33.18 62.7905 33.27 65.2705 33.45V36.24C62.1505 36 60.3905 35.88 59.9905 35.88C58.8105 35.88 58.0405 35.96 57.6805 36.12C57.3605 36.3 57.2005 36.63 57.2005 37.11V37.89C57.2005 38.15 57.3305 38.38 57.5905 38.58C57.8505 38.76 58.2305 38.85 58.7305 38.85H60.6505C64.2105 38.85 65.9905 40.01 65.9905 42.33V44.16C65.9905 44.86 65.8605 45.47 65.6005 45.99C65.3405 46.51 65.0005 46.92 64.5805 47.22C64.1805 47.5 63.6605 47.72 63.0205 47.88C62.4005 48.04 61.7505 48.15 61.0705 48.21C60.4505 48.27 59.7305 48.3 58.9105 48.3Z" fill="white" fill-opacity="0.2"/>
</g>
<g filter="url(#filter1_dd_10_688)">
<path d="M56.35 48.3C54.79 48.3 52.88 48.15 50.62 47.85V44.94C53.4 45.36 55.33 45.57 56.41 45.57C57.33 45.57 58.01 45.48 58.45 45.3C58.89 45.12 59.11 44.79 59.11 44.31V43.41C59.11 42.91 58.97 42.56 58.69 42.36C58.41 42.14 57.86 42.03 57.04 42.03H55.15C53.61 42.03 52.42 41.73 51.58 41.13C50.74 40.51 50.32 39.61 50.32 38.43V36.66C50.32 35.4 50.92 34.51 52.12 33.99C53.32 33.45 55.13 33.18 57.55 33.18C58.51 33.18 60.23 33.27 62.71 33.45V36.24C59.59 36 57.83 35.88 57.43 35.88C56.25 35.88 55.48 35.96 55.12 36.12C54.8 36.3 54.64 36.63 54.64 37.11V37.89C54.64 38.15 54.77 38.38 55.03 38.58C55.29 38.76 55.67 38.85 56.17 38.85H58.09C61.65 38.85 63.43 40.01 63.43 42.33V44.16C63.43 44.86 63.3 45.47 63.04 45.99C62.78 46.51 62.44 46.92 62.02 47.22C61.62 47.5 61.1 47.72 60.46 47.88C59.84 48.04 59.19 48.15 58.51 48.21C57.89 48.27 57.17 48.3 56.35 48.3Z" fill="#6C757D"/>
<path d="M56.35 48.3C54.79 48.3 52.88 48.15 50.62 47.85V44.94C53.4 45.36 55.33 45.57 56.41 45.57C57.33 45.57 58.01 45.48 58.45 45.3C58.89 45.12 59.11 44.79 59.11 44.31V43.41C59.11 42.91 58.97 42.56 58.69 42.36C58.41 42.14 57.86 42.03 57.04 42.03H55.15C53.61 42.03 52.42 41.73 51.58 41.13C50.74 40.51 50.32 39.61 50.32 38.43V36.66C50.32 35.4 50.92 34.51 52.12 33.99C53.32 33.45 55.13 33.18 57.55 33.18C58.51 33.18 60.23 33.27 62.71 33.45V36.24C59.59 36 57.83 35.88 57.43 35.88C56.25 35.88 55.48 35.96 55.12 36.12C54.8 36.3 54.64 36.63 54.64 37.11V37.89C54.64 38.15 54.77 38.38 55.03 38.58C55.29 38.76 55.67 38.85 56.17 38.85H58.09C61.65 38.85 63.43 40.01 63.43 42.33V44.16C63.43 44.86 63.3 45.47 63.04 45.99C62.78 46.51 62.44 46.92 62.02 47.22C61.62 47.5 61.1 47.72 60.46 47.88C59.84 48.04 59.19 48.15 58.51 48.21C57.89 48.27 57.17 48.3 56.35 48.3Z" fill="black" fill-opacity="0.9"/>
</g>
<g filter="url(#filter2_dd_10_688)">
<circle cx="45" cy="37" r="27" stroke="#0D6EFD" stroke-width="4" shape-rendering="crispEdges"/>
</g>
<defs>
<filter id="filter0_dd_10_688" x="6.24" y="20.53" width="75.7505" height="51.77" filterUnits="userSpaceOnUse" color-interpolation-filters="sRGB">
<feFlood flood-opacity="0" result="BackgroundImageFix"/>
<feColorMatrix in="SourceAlpha" type="matrix" values="0 0 0 0 0 0 0 0 0 0 0 0 0 0 0 0 0 0 127 0" result="hardAlpha"/>
<feOffset dy="8"/>
<feGaussianBlur stdDeviation="8"/>
<feComposite in2="hardAlpha" operator="out"/>
<feColorMatrix type="matrix" values="0 0 0 0 0 0 0 0 0 0 0 0 0 0 0 0 0 0 0.12 0"/>
<feBlend mode="normal" in2="BackgroundImageFix" result="effect1_dropShadow_10_688"/>
<feColorMatrix in="SourceAlpha" type="matrix" values="0 0 0 0 0 0 0 0 0 0 0 0 0 0 0 0 0 0 127 0" result="hardAlpha"/>
<feOffset dy="4"/>
<feGaussianBlur stdDeviation="2"/>
<feComposite in2="hardAlpha" operator="out"/>
<feColorMatrix type="matrix" values="0 0 0 0 0 0 0 0 0 0 0 0 0 0 0 0 0 0 0.25 0"/>
<feBlend mode="normal" in2="effect1_dropShadow_10_688" result="effect2_dropShadow_10_688"/>
<feBlend mode="normal" in="SourceGraphic" in2="effect2_dropShadow_10_688" result="shape"/>
</filter>
<filter id="filter1_dd_10_688" x="34.32" y="25.18" width="45.11" height="47.12" filterUnits="userSpaceOnUse" color-interpolation-filters="sRGB">
<feFlood flood-opacity="0" result="BackgroundImageFix"/>
<feColorMatrix in="SourceAlpha" type="matrix" values="0 0 0 0 0 0 0 0 0 0 0 0 0 0 0 0 0 0 127 0" result="hardAlpha"/>
<feOffset dy="8"/>
<feGaussianBlur stdDeviation="8"/>
<feComposite in2="hardAlpha" operator="out"/>
<feColorMatrix type="matrix" values="0 0 0 0 0 0 0 0 0 0 0 0 0 0 0 0 0 0 0.12 0"/>
<feBlend mode="normal" in2="BackgroundImageFix" result="effect1_dropShadow_10_688"/>
<feColorMatrix in="SourceAlpha" type="matrix" values="0 0 0 0 0 0 0 0 0 0 0 0 0 0 0 0 0 0 127 0" result="hardAlpha"/>
<feOffset dy="4"/>
<feGaussianBlur stdDeviation="2"/>
<feComposite in2="hardAlpha" operator="out"/>
<feColorMatrix type="matrix" values="0 0 0 0 0 0 0 0 0 0 0 0 0 0 0 0 0 0 0.25 0"/>
<feBlend mode="normal" in2="effect1_dropShadow_10_688" result="effect2_dropShadow_10_688"/>
<feBlend mode="normal" in="SourceGraphic" in2="effect2_dropShadow_10_688" result="shape"/>
</filter>
<filter id="filter2_dd_10_688" x="0" y="0" width="90" height="90" filterUnits="userSpaceOnUse" color-interpolation-filters="sRGB">
<feFlood flood-opacity="0" result="BackgroundImageFix"/>
<feColorMatrix in="SourceAlpha" type="matrix" values="0 0 0 0 0 0 0 0 0 0 0 0 0 0 0 0 0 0 127 0" result="hardAlpha"/>
<feOffset dy="8"/>
<feGaussianBlur stdDeviation="8"/>
<feComposite in2="hardAlpha" operator="out"/>
<feColorMatrix type="matrix" values="0 0 0 0 0 0 0 0 0 0 0 0 0 0 0 0 0 0 0.12 0"/>
<feBlend mode="normal" in2="BackgroundImageFix" result="effect1_dropShadow_10_688"/>
<feColorMatrix in="SourceAlpha" type="matrix" values="0 0 0 0 0 0 0 0 0 0 0 0 0 0 0 0 0 0 127 0" result="hardAlpha"/>
<feOffset dy="4"/>
<feGaussianBlur stdDeviation="2"/>
<feComposite in2="hardAlpha" operator="out"/>
<feColorMatrix type="matrix" values="0 0 0 0 0 0 0 0 0 0 0 0 0 0 0 0 0 0 0.25 0"/>
<feBlend mode="normal" in2="effect1_dropShadow_10_688" result="effect2_dropShadow_10_688"/>
<feBlend mode="normal" in="SourceGraphic" in2="effect2_dropShadow_10_688" result="shape"/>
</filter>
</defs>
</svg>
