<svg width="152" height="35" viewBox="0 0 152 35" fill="none" xmlns="http://www.w3.org/2000/svg">
<path d="M0.24 8.53H5.1L8.88 22.75L12.66 8.53H17.01L21.09 22.75L24.57 8.53H29.31L23.07 28H18.45L14.73 13.87L10.89 28H6.27L0.24 8.53ZM31.9005 7H34.6005V15.25C34.8805 13.87 36.4705 13.18 39.3705 13.18C41.2305 13.18 42.5305 13.52 43.2705 14.2C44.0305 14.86 44.4105 15.91 44.4105 17.35V28H41.7105V17.53C41.7105 17.15 41.6805 16.84 41.6205 16.6C41.5605 16.36 41.4405 16.12 41.2605 15.88C40.8605 15.38 39.9705 15.13 38.5905 15.13C37.4905 15.13 36.6505 15.21 36.0705 15.37C35.5105 15.51 35.1205 15.75 34.9005 16.09C34.7005 16.43 34.6005 16.91 34.6005 17.53V28H31.9005V7ZM53.5678 28.3C52.1878 28.3 51.1178 28.17 50.3578 27.91C49.6178 27.65 49.0778 27.19 48.7378 26.53C48.4178 25.87 48.2578 24.92 48.2578 23.68C48.2578 22.58 48.4078 21.73 48.7078 21.13C49.0278 20.51 49.5578 20.07 50.2978 19.81C51.0578 19.55 52.1278 19.42 53.5078 19.42H57.8578V17.11C57.8578 16.57 57.7478 16.16 57.5278 15.88C57.3278 15.58 56.9778 15.37 56.4778 15.25C55.9978 15.13 55.2878 15.07 54.3478 15.07C52.8478 15.07 51.1878 15.19 49.3678 15.43V13.45C51.3478 13.27 53.1378 13.18 54.7378 13.18C56.4178 13.18 57.6578 13.31 58.4578 13.57C59.2578 13.81 59.8078 14.24 60.1078 14.86C60.4078 15.48 60.5578 16.44 60.5578 17.74V28H57.9478V26.62C57.7278 27.74 56.2678 28.3 53.5678 28.3ZM54.0178 26.53C54.9978 26.53 55.8278 26.46 56.5078 26.32C57.4078 26.14 57.8578 25.72 57.8578 25.06V21.1H53.6878C52.8278 21.1 52.2078 21.17 51.8278 21.31C51.4478 21.43 51.1978 21.67 51.0778 22.03C50.9578 22.39 50.8978 22.97 50.8978 23.77C50.8978 24.49 50.9678 25.05 51.1078 25.45C51.2478 25.83 51.4978 26.11 51.8578 26.29C52.2178 26.45 52.7578 26.53 53.4778 26.53H54.0178ZM71.3304 28.3C70.0904 28.3 69.1204 28.17 68.4204 27.91C67.7204 27.63 67.2104 27.17 66.8904 26.53C66.5904 25.87 66.4404 24.95 66.4404 23.77V15.25H63.2004V13.48H66.4404V8.98H69.1704V13.48H74.3604V15.25H69.1704V23.92C69.1704 24.64 69.2504 25.18 69.4104 25.54C69.5904 25.9 69.8904 26.16 70.3104 26.32C70.7504 26.46 71.3804 26.53 72.2004 26.53C72.4604 26.53 73.1804 26.45 74.3604 26.29V28.06C73.3404 28.22 72.3304 28.3 71.3304 28.3ZM82.3207 28.3C80.7607 28.3 78.8507 28.15 76.5907 27.85V24.94C79.3707 25.36 81.3007 25.57 82.3807 25.57C83.3007 25.57 83.9807 25.48 84.4207 25.3C84.8607 25.12 85.0807 24.79 85.0807 24.31V23.41C85.0807 22.91 84.9407 22.56 84.6607 22.36C84.3807 22.14 83.8307 22.03 83.0107 22.03H81.1207C79.5807 22.03 78.3907 21.73 77.5507 21.13C76.7107 20.51 76.2907 19.61 76.2907 18.43V16.66C76.2907 15.4 76.8907 14.51 78.0907 13.99C79.2907 13.45 81.1007 13.18 83.5207 13.18C84.4807 13.18 86.2007 13.27 88.6807 13.45V16.24C85.5607 16 83.8007 15.88 83.4007 15.88C82.2207 15.88 81.4507 15.96 81.0907 16.12C80.7707 16.3 80.6107 16.63 80.6107 17.11V17.89C80.6107 18.15 80.7407 18.38 81.0007 18.58C81.2607 18.76 81.6407 18.85 82.1407 18.85H84.0607C87.6207 18.85 89.4007 20.01 89.4007 22.33V24.16C89.4007 24.86 89.2707 25.47 89.0107 25.99C88.7507 26.51 88.4107 26.92 87.9907 27.22C87.5907 27.5 87.0707 27.72 86.4307 27.88C85.8107 28.04 85.1607 28.15 84.4807 28.21C83.8607 28.27 83.1407 28.3 82.3207 28.3Z" fill="#113955"/>
<path d="M0.24 8.53H5.1L8.88 22.75L12.66 8.53H17.01L21.09 22.75L24.57 8.53H29.31L23.07 28H18.45L14.73 13.87L10.89 28H6.27L0.24 8.53ZM31.9005 7H34.6005V15.25C34.8805 13.87 36.4705 13.18 39.3705 13.18C41.2305 13.18 42.5305 13.52 43.2705 14.2C44.0305 14.86 44.4105 15.91 44.4105 17.35V28H41.7105V17.53C41.7105 17.15 41.6805 16.84 41.6205 16.6C41.5605 16.36 41.4405 16.12 41.2605 15.88C40.8605 15.38 39.9705 15.13 38.5905 15.13C37.4905 15.13 36.6505 15.21 36.0705 15.37C35.5105 15.51 35.1205 15.75 34.9005 16.09C34.7005 16.43 34.6005 16.91 34.6005 17.53V28H31.9005V7ZM53.5678 28.3C52.1878 28.3 51.1178 28.17 50.3578 27.91C49.6178 27.65 49.0778 27.19 48.7378 26.53C48.4178 25.87 48.2578 24.92 48.2578 23.68C48.2578 22.58 48.4078 21.73 48.7078 21.13C49.0278 20.51 49.5578 20.07 50.2978 19.81C51.0578 19.55 52.1278 19.42 53.5078 19.42H57.8578V17.11C57.8578 16.57 57.7478 16.16 57.5278 15.88C57.3278 15.58 56.9778 15.37 56.4778 15.25C55.9978 15.13 55.2878 15.07 54.3478 15.07C52.8478 15.07 51.1878 15.19 49.3678 15.43V13.45C51.3478 13.27 53.1378 13.18 54.7378 13.18C56.4178 13.18 57.6578 13.31 58.4578 13.57C59.2578 13.81 59.8078 14.24 60.1078 14.86C60.4078 15.48 60.5578 16.44 60.5578 17.74V28H57.9478V26.62C57.7278 27.74 56.2678 28.3 53.5678 28.3ZM54.0178 26.53C54.9978 26.53 55.8278 26.46 56.5078 26.32C57.4078 26.14 57.8578 25.72 57.8578 25.06V21.1H53.6878C52.8278 21.1 52.2078 21.17 51.8278 21.31C51.4478 21.43 51.1978 21.67 51.0778 22.03C50.9578 22.39 50.8978 22.97 50.8978 23.77C50.8978 24.49 50.9678 25.05 51.1078 25.45C51.2478 25.83 51.4978 26.11 51.8578 26.29C52.2178 26.45 52.7578 26.53 53.4778 26.53H54.0178ZM71.3304 28.3C70.0904 28.3 69.1204 28.17 68.4204 27.91C67.7204 27.63 67.2104 27.17 66.8904 26.53C66.5904 25.87 66.4404 24.95 66.4404 23.77V15.25H63.2004V13.48H66.4404V8.98H69.1704V13.48H74.3604V15.25H69.1704V23.92C69.1704 24.64 69.2504 25.18 69.4104 25.54C69.5904 25.9 69.8904 26.16 70.3104 26.32C70.7504 26.46 71.3804 26.53 72.2004 26.53C72.4604 26.53 73.1804 26.45 74.3604 26.29V28.06C73.3404 28.22 72.3304 28.3 71.3304 28.3ZM82.3207 28.3C80.7607 28.3 78.8507 28.15 76.5907 27.85V24.94C79.3707 25.36 81.3007 25.57 82.3807 25.57C83.3007 25.57 83.9807 25.48 84.4207 25.3C84.8607 25.12 85.0807 24.79 85.0807 24.31V23.41C85.0807 22.91 84.9407 22.56 84.6607 22.36C84.3807 22.14 83.8307 22.03 83.0107 22.03H81.1207C79.5807 22.03 78.3907 21.73 77.5507 21.13C76.7107 20.51 76.2907 19.61 76.2907 18.43V16.66C76.2907 15.4 76.8907 14.51 78.0907 13.99C79.2907 13.45 81.1007 13.18 83.5207 13.18C84.4807 13.18 86.2007 13.27 88.6807 13.45V16.24C85.5607 16 83.8007 15.88 83.4007 15.88C82.2207 15.88 81.4507 15.96 81.0907 16.12C80.7707 16.3 80.6107 16.63 80.6107 17.11V17.89C80.6107 18.15 80.7407 18.38 81.0007 18.58C81.2607 18.76 81.6407 18.85 82.1407 18.85H84.0607C87.6207 18.85 89.4007 20.01 89.4007 22.33V24.16C89.4007 24.86 89.2707 25.47 89.0107 25.99C88.7507 26.51 88.4107 26.92 87.9907 27.22C87.5907 27.5 87.0707 27.72 86.4307 27.88C85.8107 28.04 85.1607 28.15 84.4807 28.21C83.8607 28.27 83.1407 28.3 82.3207 28.3Z" fill="white" fill-opacity="0.2"/>
<path d="M80.35 28.3C78.79 28.3 76.88 28.15 74.62 27.85V24.94C77.4 25.36 79.33 25.57 80.41 25.57C81.33 25.57 82.01 25.48 82.45 25.3C82.89 25.12 83.11 24.79 83.11 24.31V23.41C83.11 22.91 82.97 22.56 82.69 22.36C82.41 22.14 81.86 22.03 81.04 22.03H79.15C77.61 22.03 76.42 21.73 75.58 21.13C74.74 20.51 74.32 19.61 74.32 18.43V16.66C74.32 15.4 74.92 14.51 76.12 13.99C77.32 13.45 79.13 13.18 81.55 13.18C82.51 13.18 84.23 13.27 86.71 13.45V16.24C83.59 16 81.83 15.88 81.43 15.88C80.25 15.88 79.48 15.96 79.12 16.12C78.8 16.3 78.64 16.63 78.64 17.11V17.89C78.64 18.15 78.77 18.38 79.03 18.58C79.29 18.76 79.67 18.85 80.17 18.85H82.09C85.65 18.85 87.43 20.01 87.43 22.33V24.16C87.43 24.86 87.3 25.47 87.04 25.99C86.78 26.51 86.44 26.92 86.02 27.22C85.62 27.5 85.1 27.72 84.46 27.88C83.84 28.04 83.19 28.15 82.51 28.21C81.89 28.27 81.17 28.3 80.35 28.3ZM91.1017 13.48H93.7717V15.04H93.8017C94.0217 13.8 95.6717 13.18 98.7517 13.18C100.592 13.18 101.982 13.57 102.922 14.35C103.862 15.11 104.332 16.09 104.332 17.29V23.26C104.332 24.12 104.202 24.87 103.942 25.51C103.702 26.15 103.382 26.65 102.982 27.01C102.622 27.35 102.122 27.62 101.482 27.82C100.862 28.02 100.242 28.15 99.6217 28.21C99.0617 28.27 98.3817 28.3 97.5817 28.3C96.7017 28.3 95.8917 28.2 95.1517 28C94.4317 27.78 93.9817 27.47 93.8017 27.07V34.24H91.1017V13.48ZM97.6417 26.47C98.6817 26.47 99.4717 26.4 100.012 26.26C100.572 26.1 100.972 25.82 101.212 25.42C101.452 25.02 101.572 24.41 101.572 23.59V18.25C101.572 17.35 101.452 16.68 101.212 16.24C100.972 15.8 100.572 15.51 100.012 15.37C99.4717 15.21 98.6717 15.13 97.6117 15.13C96.5517 15.13 95.7617 15.21 95.2417 15.37C94.7217 15.51 94.3517 15.8 94.1317 16.24C93.9117 16.66 93.8017 17.33 93.8017 18.25V23.59C93.8017 24.41 93.9117 25.02 94.1317 25.42C94.3717 25.82 94.7617 26.1 95.3017 26.26C95.8417 26.4 96.6217 26.47 97.6417 26.47ZM114.595 28.3C110.155 28.3 107.935 26.82 107.935 23.86V18.13C107.935 16.37 108.435 15.11 109.435 14.35C110.455 13.57 112.095 13.18 114.355 13.18C116.495 13.18 118.035 13.55 118.975 14.29C119.935 15.03 120.415 16.31 120.415 18.13V21.34H110.665V23.53C110.665 24.53 111.015 25.25 111.715 25.69C112.415 26.13 113.495 26.35 114.955 26.35C116.335 26.35 117.965 26.11 119.845 25.63V27.7C118.005 28.1 116.255 28.3 114.595 28.3ZM117.715 19.57V17.29C117.715 16.41 117.445 15.81 116.905 15.49C116.385 15.15 115.485 14.98 114.205 14.98C112.965 14.98 112.065 15.15 111.505 15.49C110.945 15.81 110.665 16.41 110.665 17.29V19.57H117.715ZM124.529 13.48H127.229V15.25C127.509 13.87 129.099 13.18 131.999 13.18C133.859 13.18 135.159 13.52 135.899 14.2C136.659 14.86 137.039 15.91 137.039 17.35V28H134.339V17.5C134.339 17.12 134.309 16.81 134.249 16.57C134.189 16.33 134.069 16.09 133.889 15.85C133.489 15.35 132.599 15.1 131.219 15.1C130.159 15.1 129.339 15.18 128.759 15.34C128.199 15.48 127.799 15.72 127.559 16.06C127.339 16.4 127.229 16.88 127.229 17.5V28H124.529V13.48ZM147.817 28.3C146.577 28.3 145.607 28.17 144.907 27.91C144.207 27.63 143.697 27.17 143.377 26.53C143.077 25.87 142.927 24.95 142.927 23.77V15.25H139.687V13.48H142.927V8.98H145.657V13.48H150.847V15.25H145.657V23.92C145.657 24.64 145.737 25.18 145.897 25.54C146.077 25.9 146.377 26.16 146.797 26.32C147.237 26.46 147.867 26.53 148.687 26.53C148.947 26.53 149.667 26.45 150.847 26.29V28.06C149.827 28.22 148.817 28.3 147.817 28.3Z" fill="#113955"/>
<path d="M80.35 28.3C78.79 28.3 76.88 28.15 74.62 27.85V24.94C77.4 25.36 79.33 25.57 80.41 25.57C81.33 25.57 82.01 25.48 82.45 25.3C82.89 25.12 83.11 24.79 83.11 24.31V23.41C83.11 22.91 82.97 22.56 82.69 22.36C82.41 22.14 81.86 22.03 81.04 22.03H79.15C77.61 22.03 76.42 21.73 75.58 21.13C74.74 20.51 74.32 19.61 74.32 18.43V16.66C74.32 15.4 74.92 14.51 76.12 13.99C77.32 13.45 79.13 13.18 81.55 13.18C82.51 13.18 84.23 13.27 86.71 13.45V16.24C83.59 16 81.83 15.88 81.43 15.88C80.25 15.88 79.48 15.96 79.12 16.12C78.8 16.3 78.64 16.63 78.64 17.11V17.89C78.64 18.15 78.77 18.38 79.03 18.58C79.29 18.76 79.67 18.85 80.17 18.85H82.09C85.65 18.85 87.43 20.01 87.43 22.33V24.16C87.43 24.86 87.3 25.47 87.04 25.99C86.78 26.51 86.44 26.92 86.02 27.22C85.62 27.5 85.1 27.72 84.46 27.88C83.84 28.04 83.19 28.15 82.51 28.21C81.89 28.27 81.17 28.3 80.35 28.3ZM91.1017 13.48H93.7717V15.04H93.8017C94.0217 13.8 95.6717 13.18 98.7517 13.18C100.592 13.18 101.982 13.57 102.922 14.35C103.862 15.11 104.332 16.09 104.332 17.29V23.26C104.332 24.12 104.202 24.87 103.942 25.51C103.702 26.15 103.382 26.65 102.982 27.01C102.622 27.35 102.122 27.62 101.482 27.82C100.862 28.02 100.242 28.15 99.6217 28.21C99.0617 28.27 98.3817 28.3 97.5817 28.3C96.7017 28.3 95.8917 28.2 95.1517 28C94.4317 27.78 93.9817 27.47 93.8017 27.07V34.24H91.1017V13.48ZM97.6417 26.47C98.6817 26.47 99.4717 26.4 100.012 26.26C100.572 26.1 100.972 25.82 101.212 25.42C101.452 25.02 101.572 24.41 101.572 23.59V18.25C101.572 17.35 101.452 16.68 101.212 16.24C100.972 15.8 100.572 15.51 100.012 15.37C99.4717 15.21 98.6717 15.13 97.6117 15.13C96.5517 15.13 95.7617 15.21 95.2417 15.37C94.7217 15.51 94.3517 15.8 94.1317 16.24C93.9117 16.66 93.8017 17.33 93.8017 18.25V23.59C93.8017 24.41 93.9117 25.02 94.1317 25.42C94.3717 25.82 94.7617 26.1 95.3017 26.26C95.8417 26.4 96.6217 26.47 97.6417 26.47ZM114.595 28.3C110.155 28.3 107.935 26.82 107.935 23.86V18.13C107.935 16.37 108.435 15.11 109.435 14.35C110.455 13.57 112.095 13.18 114.355 13.18C116.495 13.18 118.035 13.55 118.975 14.29C119.935 15.03 120.415 16.31 120.415 18.13V21.34H110.665V23.53C110.665 24.53 111.015 25.25 111.715 25.69C112.415 26.13 113.495 26.35 114.955 26.35C116.335 26.35 117.965 26.11 119.845 25.63V27.7C118.005 28.1 116.255 28.3 114.595 28.3ZM117.715 19.57V17.29C117.715 16.41 117.445 15.81 116.905 15.49C116.385 15.15 115.485 14.98 114.205 14.98C112.965 14.98 112.065 15.15 111.505 15.49C110.945 15.81 110.665 16.41 110.665 17.29V19.57H117.715ZM124.529 13.48H127.229V15.25C127.509 13.87 129.099 13.18 131.999 13.18C133.859 13.18 135.159 13.52 135.899 14.2C136.659 14.86 137.039 15.91 137.039 17.35V28H134.339V17.5C134.339 17.12 134.309 16.81 134.249 16.57C134.189 16.33 134.069 16.09 133.889 15.85C133.489 15.35 132.599 15.1 131.219 15.1C130.159 15.1 129.339 15.18 128.759 15.34C128.199 15.48 127.799 15.72 127.559 16.06C127.339 16.4 127.229 16.88 127.229 17.5V28H124.529V13.48ZM147.817 28.3C146.577 28.3 145.607 28.17 144.907 27.91C144.207 27.63 143.697 27.17 143.377 26.53C143.077 25.87 142.927 24.95 142.927 23.77V15.25H139.687V13.48H142.927V8.98H145.657V13.48H150.847V15.25H145.657V23.92C145.657 24.64 145.737 25.18 145.897 25.54C146.077 25.9 146.377 26.16 146.797 26.32C147.237 26.46 147.867 26.53 148.687 26.53C148.947 26.53 149.667 26.45 150.847 26.29V28.06C149.827 28.22 148.817 28.3 147.817 28.3Z" fill="#113955" fill-opacity="0.9"/>
</svg>
