<svg width="329" height="119" viewBox="0 0 329 119" fill="none" xmlns="http://www.w3.org/2000/svg">
    <path fill-rule="evenodd" clip-rule="evenodd"
        d="M166.256 6.14585H165.744C161.327 6.1457 157.643 6.1456 154.719 6.53874C151.632 6.95376 148.845 7.86663 146.606 10.106C144.367 12.3454 143.454 15.1322 143.039 18.2188C142.757 20.3151 142.677 25.3281 142.655 29.6262C132.712 29.9509 126.742 31.1116 122.593 35.2602C116.833 41.0205 116.833 50.2916 116.833 68.8333C116.833 87.3751 116.833 96.6464 122.593 102.406C128.354 108.167 137.625 108.167 156.166 108.167H175.833C194.375 108.167 203.646 108.167 209.406 102.406C215.167 96.6464 215.167 87.3751 215.167 68.8333C215.167 50.2916 215.167 41.0205 209.406 35.2602C205.258 31.1116 199.288 29.9509 189.345 29.6262C189.323 25.3281 189.243 20.3151 188.961 18.2188C188.546 15.1322 187.633 12.3454 185.394 10.106C183.155 7.86663 180.368 6.95376 177.281 6.53874C174.357 6.1456 170.673 6.1457 166.256 6.14585ZM181.969 29.5093C181.947 25.3466 181.876 20.8667 181.652 19.2016C181.347 16.9327 180.82 15.9617 180.179 15.3209C179.538 14.6802 178.567 14.153 176.298 13.848C173.924 13.5287 170.74 13.5208 166 13.5208C161.26 13.5208 158.076 13.5287 155.701 13.848C153.433 14.153 152.462 14.6802 151.821 15.3209C151.18 15.9617 150.653 16.9327 150.348 19.2016C150.124 20.8667 150.053 25.3466 150.031 29.5093C151.955 29.5 153.998 29.5 156.167 29.5H175.833C178.002 29.5 180.044 29.5 181.969 29.5093ZM166 45.4792C168.036 45.4792 169.687 47.1301 169.687 49.1667V49.2168C175.041 50.5655 179.521 54.7864 179.521 60.6387C179.521 62.6752 177.87 64.3262 175.833 64.3262C173.797 64.3262 172.146 62.6752 172.146 60.6387C172.146 58.7507 170.052 56.1321 166 56.1321C161.948 56.1321 159.854 58.7507 159.854 60.6387C159.854 62.5272 161.948 65.1458 166 65.1458C172.809 65.1458 179.521 69.8649 179.521 77.028C179.521 82.8803 175.041 87.1012 169.687 88.4499V88.5C169.687 90.5365 168.036 92.1875 166 92.1875C163.963 92.1875 162.312 90.5365 162.312 88.5V88.4499C156.959 87.1012 152.479 82.8803 152.479 77.028C152.479 74.9915 154.13 73.3405 156.167 73.3405C158.203 73.3405 159.854 74.9915 159.854 77.028C159.854 78.916 161.948 81.5346 166 81.5346C170.052 81.5346 172.146 78.916 172.146 77.028C172.146 75.1395 170.052 72.5208 166 72.5208C159.191 72.5208 152.479 67.8023 152.479 60.6387C152.479 54.7864 156.959 50.5655 162.312 49.2168V49.1667C162.312 47.1301 163.963 45.4792 166 45.4792Z"
        fill="#113955" />
    <path d="M0 53C0 43.6112 7.61116 36 17 36H140V101H17C7.61116 101 0 93.3888 0 84V53Z"
        fill="#113955" />
    <path d="M329 53C329 43.6112 321.389 36 312 36H189V101H312C321.389 101 329 93.3888 329 84V53Z"
        fill="#113955" />
    <path
        d="M27.94 60.184C28.3213 60.0107 28.9107 59.82 29.708 59.612C30.54 59.3693 31.372 59.248 32.204 59.248C33.66 59.248 34.8733 59.4733 35.844 59.924C36.8147 60.34 37.404 60.964 37.612 61.796C37.9933 63.2173 38.34 64.552 38.652 65.8C38.9987 67.0133 39.328 68.192 39.64 69.336C39.952 70.4453 40.2467 71.5547 40.524 72.664C40.836 73.7733 41.1307 74.9347 41.408 76.148H41.668C41.98 74.0333 42.2573 72.0227 42.5 70.116C42.7427 68.1747 42.968 66.2853 43.176 64.448C43.384 62.576 43.592 60.7387 43.8 58.936C44.008 57.0987 44.216 55.244 44.424 53.372C45.7067 52.644 47.076 52.28 48.532 52.28C49.8147 52.28 50.924 52.5573 51.86 53.112C52.796 53.6667 53.264 54.6027 53.264 55.92C53.264 56.6827 53.1773 57.7747 53.004 59.196C52.8653 60.5827 52.6573 62.1427 52.38 63.876C52.1373 65.6093 51.8427 67.4293 51.496 69.336C51.1493 71.2427 50.7853 73.0627 50.404 74.796C50.0227 76.5293 49.624 78.1067 49.208 79.528C48.8267 80.9147 48.4627 81.9893 48.116 82.752C47.596 83.2373 46.7467 83.636 45.568 83.948C44.3893 84.26 43.176 84.416 41.928 84.416C40.2987 84.416 38.912 84.208 37.768 83.792C36.6587 83.3413 35.9827 82.7173 35.74 81.92C35.2893 80.5333 34.804 78.8867 34.284 76.98C33.764 75.0733 33.2093 72.976 32.62 70.688C32.1347 72.9413 31.632 75.1427 31.112 77.292C30.592 79.4413 30.124 81.2613 29.708 82.752C29.188 83.2373 28.408 83.636 27.368 83.948C26.328 84.26 25.184 84.416 23.936 84.416C22.376 84.416 20.9547 84.208 19.672 83.792C18.424 83.3413 17.6093 82.7173 17.228 81.92C16.916 81.296 16.5693 80.3773 16.188 79.164C15.8413 77.916 15.4773 76.512 15.096 74.952C14.7147 73.3573 14.316 71.6413 13.9 69.804C13.5187 67.9667 13.1547 66.1293 12.808 64.292C12.496 62.4547 12.2013 60.6693 11.924 58.936C11.6467 57.168 11.4387 55.556 11.3 54.1C11.7853 53.6493 12.4613 53.2333 13.328 52.852C14.1947 52.4707 15.1307 52.28 16.136 52.28C17.4533 52.28 18.528 52.5747 19.36 53.164C20.2267 53.7187 20.764 54.672 20.972 56.024C21.5267 59.56 21.9773 62.5067 22.324 64.864C22.7053 67.2213 23 69.1627 23.208 70.688C23.4507 72.1787 23.624 73.34 23.728 74.172C23.832 75.004 23.936 75.6627 24.04 76.148H24.3C24.612 74.7613 24.9067 73.4787 25.184 72.3C25.4613 71.1213 25.7387 69.9427 26.016 68.764C26.328 67.5507 26.64 66.268 26.952 64.916C27.264 63.5293 27.5933 61.952 27.94 60.184ZM86.4546 83.792C86.0733 83.896 85.4666 84 84.6346 84.104C83.8373 84.208 83.04 84.26 82.2426 84.26C81.4453 84.26 80.7346 84.1907 80.1106 84.052C79.5213 83.948 79.0186 83.74 78.6026 83.428C78.1866 83.116 77.8746 82.6827 77.6666 82.128C77.4586 81.5733 77.3546 80.8453 77.3546 79.944V71.832H67.3706V83.792C66.9893 83.896 66.3826 84 65.5506 84.104C64.7533 84.208 63.956 84.26 63.1586 84.26C62.3613 84.26 61.6506 84.1907 61.0266 84.052C60.4373 83.948 59.9346 83.74 59.5186 83.428C59.1026 83.116 58.7906 82.6827 58.5826 82.128C58.3746 81.5733 58.2706 80.8453 58.2706 79.944V52.488C58.652 52.4187 59.2586 52.332 60.0906 52.228C60.9226 52.0893 61.72 52.02 62.4826 52.02C63.28 52.02 63.9733 52.0893 64.5626 52.228C65.1866 52.332 65.7066 52.54 66.1226 52.852C66.5386 53.164 66.8506 53.5973 67.0586 54.152C67.2666 54.7067 67.3706 55.4347 67.3706 56.336V64.656H77.3546V52.488C77.736 52.4187 78.3426 52.332 79.1746 52.228C80.0066 52.0893 80.804 52.02 81.5666 52.02C82.364 52.02 83.0573 52.0893 83.6466 52.228C84.2706 52.332 84.7906 52.54 85.2066 52.852C85.6226 53.164 85.9346 53.5973 86.1426 54.152C86.3506 54.7067 86.4546 55.4347 86.4546 56.336V83.792ZM99.9161 53.424C100.505 53.0773 101.389 52.748 102.568 52.436C103.781 52.124 104.995 51.968 106.208 51.968C107.941 51.968 109.467 52.228 110.784 52.748C112.136 53.2333 113.003 54.0133 113.384 55.088C114.008 56.8907 114.684 58.988 115.412 61.38C116.14 63.772 116.868 66.2507 117.596 68.816C118.324 71.3467 119.035 73.86 119.728 76.356C120.421 78.8173 121.028 81.0013 121.548 82.908C121.132 83.3933 120.508 83.7747 119.676 84.052C118.844 84.364 117.856 84.52 116.712 84.52C115.88 84.52 115.169 84.4507 114.58 84.312C114.025 84.1733 113.557 83.9653 113.176 83.688C112.829 83.4107 112.535 83.0467 112.292 82.596C112.084 82.1453 111.893 81.6253 111.72 81.036L110.784 77.448H101.372C101.095 78.488 100.817 79.5627 100.54 80.672C100.263 81.7813 99.9855 82.856 99.7081 83.896C99.2228 84.0693 98.7028 84.208 98.1481 84.312C97.6281 84.4507 96.9868 84.52 96.2241 84.52C94.4561 84.52 93.1388 84.2253 92.2721 83.636C91.4401 83.012 91.0241 82.1627 91.0241 81.088C91.0241 80.6027 91.0935 80.1173 91.2321 79.632C91.3708 79.1467 91.5268 78.5747 91.7001 77.916C91.9428 76.98 92.2721 75.8187 92.6881 74.432C93.1388 73.0453 93.6241 71.5547 94.1441 69.96C94.6641 68.3307 95.2188 66.6667 95.8081 64.968C96.3975 63.2693 96.9521 61.6747 97.4721 60.184C97.9921 58.6587 98.4601 57.3067 98.8761 56.128C99.3268 54.9493 99.6735 54.048 99.9161 53.424ZM106.156 60.132C105.671 61.588 105.116 63.2173 104.492 65.02C103.903 66.788 103.365 68.5907 102.88 70.428H109.328C108.843 68.556 108.34 66.736 107.82 64.968C107.335 63.1653 106.884 61.5533 106.468 60.132H106.156ZM122.526 59.768C122.283 59.3867 122.058 58.8667 121.85 58.208C121.642 57.5493 121.538 56.856 121.538 56.128C121.538 54.776 121.832 53.8053 122.422 53.216C123.046 52.6267 123.843 52.332 124.814 52.332H147.486C147.728 52.7133 147.954 53.2333 148.162 53.892C148.37 54.5507 148.474 55.244 148.474 55.972C148.474 57.324 148.162 58.2947 147.538 58.884C146.948 59.4733 146.168 59.768 145.198 59.768H139.426V83.792C139.044 83.896 138.438 84 137.606 84.104C136.808 84.208 136.011 84.26 135.214 84.26C134.416 84.26 133.706 84.1907 133.082 84.052C132.492 83.948 131.99 83.74 131.574 83.428C131.158 83.116 130.846 82.6827 130.638 82.128C130.43 81.5733 130.326 80.8453 130.326 79.944V59.768H122.526Z"
        fill="white" />
    <path
        d="M198.184 67.1C199.64 67.1 200.749 66.7707 201.512 66.112C202.309 65.4187 202.708 64.3787 202.708 62.992C202.708 61.6747 202.292 60.6693 201.46 59.976C200.663 59.248 199.484 58.884 197.924 58.884C197.369 58.884 196.901 58.9013 196.52 58.936C196.173 58.936 195.809 58.9707 195.428 59.04V67.1H198.184ZM195.48 83.792C195.099 83.896 194.492 84 193.66 84.104C192.863 84.208 192.065 84.26 191.268 84.26C190.471 84.26 189.76 84.1907 189.136 84.052C188.547 83.948 188.044 83.74 187.628 83.428C187.212 83.116 186.9 82.6827 186.692 82.128C186.484 81.5733 186.38 80.8453 186.38 79.944V55.452C186.38 54.724 186.571 54.1693 186.952 53.788C187.368 53.372 187.923 53.0427 188.616 52.8C189.795 52.384 191.129 52.0893 192.62 51.916C194.145 51.708 195.671 51.604 197.196 51.604C201.98 51.604 205.637 52.6267 208.168 54.672C210.699 56.7173 211.964 59.4907 211.964 62.992C211.964 64.6907 211.687 66.2333 211.132 67.62C210.612 68.972 209.815 70.1507 208.74 71.156C207.7 72.1267 206.365 72.8893 204.736 73.444C203.141 73.964 201.287 74.224 199.172 74.224H195.48V83.792ZM216.595 57.324C216.595 55.8333 217.028 54.6547 217.895 53.788C218.762 52.9213 219.94 52.488 221.431 52.488H238.591C238.834 52.8693 239.042 53.372 239.215 53.996C239.423 54.62 239.527 55.2787 239.527 55.972C239.527 57.2893 239.232 58.2253 238.643 58.78C238.088 59.3347 237.343 59.612 236.407 59.612H225.435V64.448H237.135C237.378 64.8293 237.586 65.332 237.759 65.956C237.967 66.5453 238.071 67.1867 238.071 67.88C238.071 69.1973 237.794 70.1333 237.239 70.688C236.684 71.2427 235.939 71.52 235.003 71.52H225.435V76.98H238.799C239.042 77.3613 239.25 77.864 239.423 78.488C239.631 79.112 239.735 79.7707 239.735 80.464C239.735 81.7813 239.44 82.7347 238.851 83.324C238.296 83.8787 237.551 84.156 236.615 84.156H221.431C219.94 84.156 218.762 83.7227 217.895 82.856C217.028 81.9893 216.595 80.8107 216.595 79.32V57.324ZM273.631 82.908C273.146 83.3933 272.435 83.7573 271.499 84C270.598 84.2773 269.506 84.416 268.223 84.416C266.94 84.416 265.727 84.2253 264.583 83.844C263.439 83.4627 262.503 82.544 261.775 81.088L256.627 70.584C256.107 69.5093 255.639 68.504 255.223 67.568C254.807 66.5973 254.356 65.488 253.871 64.24L253.559 64.292C253.698 66.164 253.767 68.0707 253.767 70.012C253.802 71.9533 253.819 73.86 253.819 75.732V83.792C253.438 83.896 252.848 84 252.051 84.104C251.288 84.208 250.526 84.26 249.763 84.26C249 84.26 248.324 84.208 247.735 84.104C247.146 84 246.66 83.792 246.279 83.48C245.898 83.168 245.603 82.752 245.395 82.232C245.187 81.6773 245.083 80.9667 245.083 80.1V54.1C245.568 53.4067 246.314 52.8867 247.319 52.54C248.324 52.1933 249.399 52.02 250.543 52.02C251.826 52.02 253.039 52.228 254.183 52.644C255.362 53.0253 256.298 53.9267 256.991 55.348L262.191 65.852C262.711 66.9267 263.179 67.9493 263.595 68.92C264.011 69.856 264.462 70.948 264.947 72.196L265.207 72.144C265.068 70.272 264.982 68.4 264.947 66.528C264.912 64.656 264.895 62.784 264.895 60.912V52.488C265.276 52.384 265.848 52.28 266.611 52.176C267.408 52.072 268.188 52.02 268.951 52.02C270.476 52.02 271.638 52.2973 272.435 52.852C273.232 53.372 273.631 54.4813 273.631 56.18V82.908ZM278.92 59.768C278.677 59.3867 278.452 58.8667 278.244 58.208C278.036 57.5493 277.932 56.856 277.932 56.128C277.932 54.776 278.227 53.8053 278.816 53.216C279.44 52.6267 280.237 52.332 281.208 52.332H303.88C304.123 52.7133 304.348 53.2333 304.556 53.892C304.764 54.5507 304.868 55.244 304.868 55.972C304.868 57.324 304.556 58.2947 303.932 58.884C303.343 59.4733 302.563 59.768 301.592 59.768H295.82V83.792C295.439 83.896 294.832 84 294 84.104C293.203 84.208 292.405 84.26 291.608 84.26C290.811 84.26 290.1 84.1907 289.476 84.052C288.887 83.948 288.384 83.74 287.968 83.428C287.552 83.116 287.24 82.6827 287.032 82.128C286.824 81.5733 286.72 80.8453 286.72 79.944V59.768H278.92Z"
        fill="white" />
</svg>